<svg width="25" height="24" viewBox="0 0 25 24" fill="none" xmlns="http://www.w3.org/2000/svg">
<g id="save-money-dollar-stroke-rounded 1">
<path id="Vector" d="M20.412 13C21.2029 11.8662 21.6667 10.4872 21.6667 9C21.6667 5.13401 18.5327 2 14.6667 2C10.8007 2 7.66667 5.134 7.66667 9C7.66667 10.0736 7.90836 11.0907 8.3403 12" stroke="black" stroke-width="1.5" stroke-linecap="round" stroke-linejoin="round"/>
<path id="Vector_2" d="M14.6667 6C13.5621 6 12.6667 6.67157 12.6667 7.5C12.6667 8.32843 13.5621 9 14.6667 9C15.7713 9 16.6667 9.67157 16.6667 10.5C16.6667 11.3284 15.7713 12 14.6667 12M14.6667 6C15.5375 6 16.2783 6.4174 16.5529 7M14.6667 6V5M14.6667 12C13.7959 12 13.0551 11.5826 12.7805 11M14.6667 12V13" stroke="black" stroke-width="1.5" stroke-linecap="round"/>
<path id="Vector_3" d="M3.66667 14H6.06149C6.35564 14 6.64575 14.0663 6.90884 14.1936L8.95082 15.1816C9.21391 15.3089 9.50402 15.3751 9.79817 15.3751H10.8408C11.8492 15.3751 12.6667 16.1662 12.6667 17.142C12.6667 17.1814 12.6397 17.2161 12.6005 17.2269L10.0595 17.9295C9.60374 18.0555 9.11567 18.0116 8.69167 17.8064L6.50878 16.7503M12.6667 16.5L17.2595 15.0889C18.0737 14.8352 18.9538 15.136 19.4638 15.8423C19.8326 16.3529 19.6824 17.0842 19.1452 17.3942L11.6296 21.7305C11.1516 22.0063 10.5876 22.0736 10.0618 21.9176L3.66667 20.0199" stroke="black" stroke-width="1.5" stroke-linecap="round" stroke-linejoin="round"/>
</g>
</svg>
